<?xml version="1.0" encoding="UTF-8" standalone="no"?>
<svg
   xmlns:dc="http://purl.org/dc/elements/1.1/"
   xmlns:cc="http://creativecommons.org/ns#"
   xmlns:rdf="http://www.w3.org/1999/02/22-rdf-syntax-ns#"
   xmlns:svg="http://www.w3.org/2000/svg"
   xmlns="http://www.w3.org/2000/svg"
   id="svg2187"
   version="1.1"
   viewBox="0 0 31.174147 27.389584"
   height="27.389584mm"
   width="31.174147mm">
  <defs
     id="defs2181" />
  <metadata
     id="metadata2184">
    <rdf:RDF>
      <cc:Work
         rdf:about="">
        <dc:format>image/svg+xml</dc:format>
        <dc:type
           rdf:resource="http://purl.org/dc/dcmitype/StillImage" />
        <dc:title></dc:title>
      </cc:Work>
    </rdf:RDF>
  </metadata>
  <g
     transform="translate(-65.299831,-59.543304)"
     id="layer1">
    <path
       id="path981"
       d="m 67.703287,59.807887 c -1.17263,0 -2.11266,0.94403 -2.11666,2.11667 l -0.0222,18.627311 c -0.004,1.17262 0.96676,2.14768 2.1394,2.14768 h 3.43907 c 1.05833,0 1.05882,-1.1e-4 2.12545,1.05575 0.61028,0.61371 1.23318,1.24124 1.8433,1.854669 1.05833,1.05833 1.05884,1.05833 2.11718,1.05833 h 5.29115 c 1.0624,0 1.32292,-0.26458 2.11667,-1.05833 l 1.85208,-1.852079 c 0.79375,-0.79376 1.32292,-1.05834 2.11667,-1.05834 l 5.476079,0.002 c 0.004,1.8e-4 0.007,3.71e-4 0.0109,5.3e-4 0.005,-1.6e-4 0.01,-3.18e-4 0.015,-5.3e-4 h 0.006 c 1.155501,-0.0115 2.0882,-0.9477 2.095481,-2.10324 h 5.29e-4 v -0.0129 l -5.2e-4,-18.647451 c 1.8e-4,-0.004 2.49e-4,-0.007 5.29e-4,-0.0109 0,-1.16901 -0.947658,-2.11667 -2.116658,-2.11667 -0.0021,0 -0.004,0 -0.007,0 h -5.728288 c -0.8103,-0.002 -1.33945,0.26252 -2.12907,1.05213 l -1.85622,1.85621 c -0.79375,0.79375 -1.32291,1.05833 -2.11666,1.05833 h -5.04569 c -0.77478,0 -1.30393,-0.26471 -1.8371,-0.79788 l -2.136832,-2.13682 c -0.7695,-0.76951 -1.2988,-1.03405 -2.10065,-1.03405 z"
       style="opacity:1;fill:#4c97ff;fill-opacity:1;stroke:#3971bf;stroke-width:0.52916664;stroke-miterlimit:4;stroke-dasharray:none;stroke-opacity:1" />
  </g>
</svg>
