<?xml version="1.0" encoding="UTF-8" standalone="no"?>
<svg
   xmlns:dc="http://purl.org/dc/elements/1.1/"
   xmlns:cc="http://creativecommons.org/ns#"
   xmlns:rdf="http://www.w3.org/1999/02/22-rdf-syntax-ns#"
   xmlns:svg="http://www.w3.org/2000/svg"
   xmlns="http://www.w3.org/2000/svg"
   id="svg1621"
   version="1.1"
   viewBox="0 0 77.258339 50.800003"
   height="50.800003mm"
   width="77.258339mm">
  <defs
     id="defs1615" />
  <metadata
     id="metadata1618">
    <rdf:RDF>
      <cc:Work
         rdf:about="">
        <dc:format>image/svg+xml</dc:format>
        <dc:type
           rdf:resource="http://purl.org/dc/dcmitype/StillImage" />
        <dc:title></dc:title>
      </cc:Work>
    </rdf:RDF>
  </metadata>
  <g
     transform="translate(-57.376786,-52.37381)"
     id="layer1">
    <path
       style="opacity:1;fill:#d65cd6;fill-opacity:1;stroke:#a145a1;stroke-width:0.52916664;stroke-miterlimit:4;stroke-dasharray:none;stroke-opacity:1"
       d="m 59.758034,52.638393 c -1.172632,0 -2.116665,0.944031 -2.116665,2.116667 v 46.0375 c 0,1.17263 0.944033,2.11667 2.116665,2.11667 h 72.495826 c 1.17264,0 2.11668,-0.94404 2.11668,-2.11667 V 89.413409 h -0.002 c 5.2e-4,-0.0105 0.001,-0.02101 0.002,-0.03152 0,-1.169003 -0.94767,-2.116666 -2.11668,-2.116666 -0.0228,5.29e-4 -0.0455,0.0013 -0.0682,0.0026 l -43.588036,0.03099 c -0.79375,0 -1.322909,0.264584 -2.116659,1.058334 l -1.852091,1.852083 c -0.79375,0.79375 -1.05426,1.058333 -2.11666,1.058333 h -5.291671 c -1.058329,0 -1.058329,0 -2.116669,-1.058333 -0.61011,-0.613431 -1.233501,-1.240835 -1.843781,-1.854555 -1.066629,-1.055862 -1.066629,-1.055862 -2.12496,-1.055862 h -3.43959 c -1.17263,0 -2.14242,-0.975026 -2.13888,-2.147652 l 0.0222,-7.377349 c 0.004,-1.172636 0.94403,-2.116665 2.11666,-2.116665 h 3.4315 c 0.80184,0 1.331,0.264583 2.10051,1.034092 l 2.1369,2.136902 c 0.53317,0.533172 1.06234,0.797756 1.83712,0.797756 h 5.04605 c 0.79375,0 1.32292,-0.264584 2.11667,-1.058335 l 1.856219,-1.856215 c 0.789609,-0.789617 1.318781,-1.0542 2.12908,-1.052237 l 43.918748,0.08022 v -0.0026 c 1.16315,-0.008 2.10194,-0.952976 2.1022,-2.116148 V 54.755063 c 0,-1.172636 -0.94403,-2.116667 -2.11667,-2.116667 z"
       id="path940" />
  </g>
</svg>
